<svg xmlns="http://www.w3.org/2000/svg" xmlns:xlink="http://www.w3.org/1999/xlink" width="43.159" height="57.154" viewBox="0 0 43.159 57.154">
  <defs>
    <clipPath id="clip-path">
      <rect id="Rectangle_5" data-name="Rectangle 5" width="43.159" height="57.154" fill="none"/>
    </clipPath>
  </defs>
  <g id="Group_5" data-name="Group 5" clip-path="url(#clip-path)">
    <path id="Path_15" data-name="Path 15" d="M36.974,56.449c-9.347.893-18.634.69-27.626.673a3.452,3.452,0,0,1-1.831-2.568c-.343-1.56-.608-3.141-.842-4.722-.439-2.962-.856-5.927-1.233-8.9-.136-1.072-.133-2.162-.2-3.363C1.888,35.61-.172,32.758.011,28.667s2.516-6.622,6.25-8.146c-.082-.3-.147-.583-.236-.856a4.432,4.432,0,0,1,1.493-5.126,11.035,11.035,0,0,1,4.292-2.066c.493-.137.991-.258,1.618-.421-.049-.738-.113-1.444-.139-2.15-.093-2.545.482-3.654,2.663-5.088.06-1.5.107-3.143,1.88-3.812a2.944,2.944,0,0,1,3.4,1.1C22.24.849,23.252-.4,25.069.12c1.053.3,1.466,1.149,1.848,3.453,3.226.76,3.746,2.006,1.937,4.776a6.67,6.67,0,0,0,.136.708,5.228,5.228,0,0,0,.314.662c.8-.346,1.555-.644,2.284-1,.682-.33,1.336-.718,1.958-1.056,1.415,1.327,1.651,3.342.937,7.357.219.069.445.154.678.214a10.4,10.4,0,0,1,6.9,14.778,29.18,29.18,0,0,1-2.264,3.5,12.876,12.876,0,0,1-.9,1.086c-.3,6.992-.351,13.864-1.417,20.668a5.994,5.994,0,0,1-.5,1.179M5.263,35.547c.167-.549.254-.891.373-1.22a3.223,3.223,0,0,1,4.6-2,11.7,11.7,0,0,1,2.267,1.817,6.168,6.168,0,0,1,.674.791,22.745,22.745,0,0,1,2.094-3.138c1.95-2.085,4.578-1.8,6.161.567.42.628.735,1.327,1.151,2.088.387-.563.727-1.069,1.08-1.566a5.171,5.171,0,0,1,2.849-2.02,3.306,3.306,0,0,1,4.191,1.692l.49.853a4.7,4.7,0,0,1,3.409-2.356,3.743,3.743,0,0,1,3.585,1.578c2.628-2.623,3.845-6.389,2.878-8.86a11.2,11.2,0,0,1-6.152,2.3c-2.824.225-5.658.354-8.491.436-3.712.109-7.431.049-11.14.222A15.962,15.962,0,0,0,8.3,28.541a7.577,7.577,0,0,0-4.117,6.15l1.08.856M35.91,17.307a4.733,4.733,0,0,0-4.159.029,22.922,22.922,0,0,1-4.677,1.545c-3.3.557-6.634.928-9.965,1.263A37.58,37.58,0,0,0,6.7,22.249a11.177,11.177,0,0,0-2.187,1.13C1.579,25.4.639,30.16,2.912,32.944c.065-.06.17-.111.192-.185.99-3.389,3.391-5.305,6.616-6.371a27.251,27.251,0,0,1,7.612-1.223,35.864,35.864,0,0,0,15.031-3.778,15.915,15.915,0,0,0,2.909-2.013,1.661,1.661,0,0,0,.637-2.066m-14.056,38.1a2.932,2.932,0,0,0,.1-.526q-.244-7.511-.5-15.023a13.621,13.621,0,0,0-.063-2.011,24.332,24.332,0,0,0-.907-3.739,2.543,2.543,0,0,0-2.205-1.928,2.679,2.679,0,0,0-2.53,1.732,9.979,9.979,0,0,0-.838,2.15,13.723,13.723,0,0,0-.159,5.235c.253,2.361.519,4.721.814,7.078s.63,4.678.949,7.032Zm7.36-.129c.052-.55.1-.855.106-1.162.15-5.621.311-11.242.427-16.864A14.5,14.5,0,0,0,29.5,34.33c-.359-1.942-1.749-2.5-3.423-1.429a2.905,2.905,0,0,0-.7.6,8.815,8.815,0,0,0-2.224,5.643c.078,5.106.293,10.209.464,15.313a4.687,4.687,0,0,0,.167.822Zm3.672-45.137c-.1,0-.21-.033-.285,0a31.439,31.439,0,0,1-10.836,2.923c-2.3.251-4.624.367-6.932.589a11.136,11.136,0,0,0-6.179,2.177c-1.558,1.265-1.609,2.722-.221,4.23.84-.176,1.686-.42,2.548-.524q5.292-.638,10.594-1.2a31.34,31.34,0,0,0,8.592-1.8c2.731-1.112,3.72-3.477,2.72-6.4M14.613,55.408a12.229,12.229,0,0,0-.006-1.278c-.575-5.171-1.1-10.349-1.778-15.507a6.6,6.6,0,0,0-2.663-4.4c-1.43-1.086-2.812-.512-3,1.245a17.589,17.589,0,0,0-.1,3.848c.5,4.4,1.09,8.792,1.722,13.177a4.5,4.5,0,0,0,1.043,2.912ZM36.39,33.024c-2.078-.462-2.838-.187-3.7,1.259a8.121,8.121,0,0,0-1.272,4.083c-.074,4.18-.212,8.359-.306,12.539-.031,1.376,0,2.754,0,4.315l4.793-.379c.158-1.184.353-2.244.431-3.312.218-2.985.434-5.971.563-8.96q.16-3.7.093-7.416a8.51,8.51,0,0,0-.595-2.129M15.115,11.84a47.281,47.281,0,0,0,12.092-1.533c.361-1.225-.339-1.806-1.035-2.326a10.436,10.436,0,0,0-4.56-1.768,9.616,9.616,0,0,0-4.582.114,2.524,2.524,0,0,0-2,2.279,29.776,29.776,0,0,0,.082,3.234m22.5,6.338a7.962,7.962,0,0,1-4.334,4.357c-1.51.761-3.117,1.33-4.679,1.987-.312.132-.617.279-1.245.564a37.458,37.458,0,0,0,8.664-.606,7.4,7.4,0,0,0,4.711-2.49,8.212,8.212,0,0,0-3.117-3.813M24.455,1.627c-1.446.487-1.866,1.579-2.159,2.914l2.228.653c.523-1.217,1.037-2.314-.069-3.566m-5.835.842a1.384,1.384,0,0,0-.754,1.859A7.461,7.461,0,0,0,20.2,4.145c-.249-.9-.581-1.537-1.579-1.675m9.165,4.524.389-1.175a1.468,1.468,0,0,0-1.893.1l1.5,1.077" transform="translate(0 0)" fill="#3f1b00"/>
    <path id="Path_16" data-name="Path 16" d="M53.729,24.953l-1.642,1.632c-.542.142-.864-.158-.893-.793a1.727,1.727,0,0,1,1.368-1.645c.626-.118,1.13.006,1.167.806" transform="translate(-35.316 -16.632)" fill="#3f1b00"/>
    <path id="Path_17" data-name="Path 17" d="M65.618,24.338l.282.836L63.633,26.6c-.592-.067-.769-.478-.6-1.077.242-.852,1-1.218,2.584-1.189" transform="translate(-43.442 -16.789)" fill="#3f1b00"/>
  </g>
</svg>
