<svg xmlns="http://www.w3.org/2000/svg" xmlns:xlink="http://www.w3.org/1999/xlink" width="52.31" height="51.391" viewBox="0 0 52.31 51.391">
  <defs>
    <clipPath id="clip-path">
      <rect id="Rectangle_4" data-name="Rectangle 4" width="52.31" height="51.391" fill="none"/>
    </clipPath>
  </defs>
  <g id="Group_3" data-name="Group 3" clip-path="url(#clip-path)">
    <path id="Path_14" data-name="Path 14" d="M26.009,51.379a26.024,26.024,0,0,1-12.629-2.8A23.36,23.36,0,0,1,2.5,36.805,26.533,26.533,0,0,1,2.01,15.454,23.711,23.711,0,0,1,18.375,1.092a28.465,28.465,0,0,1,20.9,2.091C46.638,6.88,50.845,12.963,52,21.07a27.354,27.354,0,0,1-4.546,19.867A23.285,23.285,0,0,1,30.511,51.119c-.823.108-1.65.2-2.478.252-.672.041-1.349.008-2.024.008m16.46-17.66-.318.3-.312.311-.13.184.1-.216.316-.307.311-.3.1-.089-.069.123M5.665,12.181l-.059.067c.007-.036.013-.072.02-.108l.344-.283a3.531,3.531,0,0,0,.785-.4Q10.234,8.393,13.679,5.3a2.791,2.791,0,0,0,.4-.61l.415-.086-.1-.168-.306.26a7.444,7.444,0,0,0-1.115.439,22.116,22.116,0,0,0-6.514,5.806,5.944,5.944,0,0,0-.476.926l-.312.318m15.907-9.97A6.166,6.166,0,0,0,17.144,3.7c-4.282,3.763-8.591,7.5-12.89,11.24a4.234,4.234,0,0,0-1.187,2.628c1.164-.95,2.038-1.658,2.907-2.373Q13.66,8.883,21.341,2.557a1.2,1.2,0,0,0,.206-.373l.077-.1-.051.123M3.825,35.228,3.738,35.2l.123,0a4.815,4.815,0,0,0,.217,1.169A21.828,21.828,0,0,0,16.929,48.333a28.1,28.1,0,0,0,12.9,1.25C37.077,48.749,42.791,45.4,46.7,39.178a24.308,24.308,0,0,0,3.69-10.74c-1.507-.962-2.335-.925-3.281.317a20.219,20.219,0,0,0-1.532,2.692c-.59,1.093-1.083,2.248-1.761,3.281a4.475,4.475,0,0,1-3.837,2.026,7.4,7.4,0,0,1-2-.2,3.229,3.229,0,0,0-3.7,1.291c-.471.619-.987,1.206-1.511,1.782a6.94,6.94,0,0,1-9.153,1.443A24.488,24.488,0,0,1,20.2,38.379c-1.945-1.707-2.518-1.812-4.57-.279a6.5,6.5,0,0,1-7.847.361,36.023,36.023,0,0,1-3.958-3.232M32.162,25.5a5.092,5.092,0,0,0-1.983-4.084,6.378,6.378,0,0,0-9.312,1.794,4.808,4.808,0,0,0-.56,1.6,5.777,5.777,0,0,0,5.468,6.6c3.787.2,6.22-1.888,6.387-5.907M37.8,4.241c-1.681,1.412-3.237,2.7-4.775,4.014-6.273,5.354-12.362,10.929-19.015,15.828a3.622,3.622,0,0,0-.993,1.153c-.7,1.279-1.612,2.163-3.109,2.008L3.465,32.034a6.993,6.993,0,0,0,.474.69c.192.217.424.4.7.654,12.133-8.693,22.987-18.821,34.59-28.307L37.8,4.241M2.02,21.5c.518-.382.854-.615,1.175-.868,3.1-2.439,6.212-4.852,9.275-7.332,2.008-1.625,4.257-2.962,5.96-4.96a3.472,3.472,0,0,1,.924-.559,12.782,12.782,0,0,0,1.2-.714q3.178-2.374,6.331-4.781a4.4,4.4,0,0,0,.437-.451c-2.041-.335-2.618-.275-4.025.719C21.643,3.72,20,4.911,18.441,6.19c-5.258,4.3-10.48,8.644-15.712,12.976a3.742,3.742,0,0,0-.417.495L2.02,21.5M26.938,40.475a5.165,5.165,0,0,0,4.7-2.052,110.423,110.423,0,0,1,9.256-9.2c3-2.854,6.166-5.534,9.393-8.41l-.446-2.13c-1.889,1.75-3.6,3.328-5.3,4.913a4.322,4.322,0,0,0-1.264,1.725,2.287,2.287,0,0,1-1.222,1.3,6.687,6.687,0,0,0-2.621,1.865c-2.049,1.986-4.075,4-6.133,5.972s-4.132,3.911-6.364,6.021M13.58,20.962c.094.676.168,1.2.262,1.878,8.022-5.956,15.1-12.717,22.813-19.062l-1.834-.7-8.166,7.134c-.71,1.945-.954,2.147-2.79,2.661a3.888,3.888,0,0,0-1.211.642c-.666.492-1.291,1.042-1.931,1.569L13.58,20.962m24.521,4.7A163.628,163.628,0,0,0,24.159,39.544l1.47.714L39.64,26.833,38.1,25.666M17.817,10.484,1.823,23.059c-.04.718-.068,1.24-.118,2.157l6.475-4.66c.5-1.622,1.255-2.886,3.026-2.693l7.573-6.351-.962-1.027m10.074,7.938L41.6,6.47l-1.254-.8c-2.5,1.692-14.229,11.753-14.865,12.751Zm14.8-11.117c-4.893,3.453-9.044,7.636-13.571,11.565l1.687.9L43.882,8.355l-1.194-1.05M40.874,21.668l7.636-6.935-.89-1.522L33.828,25.629l-.374,2.817,4.133-3.8c.334-2.086.741-2.463,3.287-2.974m-4,12.941c.5.149.829.274,1.166.339.4.077.81.1,1.435.176,1.047-1.106,2.134-2.292,3.263-3.437a16.13,16.13,0,0,0,2.438-3.008,5.192,5.192,0,0,1,2.032-2.066,14.852,14.852,0,0,0,3.373-2.562c-.025-.5-.049-1-.09-1.826A167.248,167.248,0,0,0,36.873,34.609M18.767,23.9,5.206,34.448l1.213,1.1c4.458-2.746,8.219-6.24,12.1-9.486.083-.725.152-1.333.247-2.158M9.231,37.456a89.751,89.751,0,0,0,10.314-8.144l-.8-1.879L7.5,36.425l1.729,1.031m10.977-7.145-9.2,7.444a3.861,3.861,0,0,0,3.352-.738,11.1,11.1,0,0,1,2.229-1.4c2.126-.756,3.545-2.411,5.378-3.7l-1.756-1.607m-.462-18.164-7.6,6.337,1.1,1.33,8.446-6.92-1.947-.746m29.182,3.691-6.761,6.12,1.268,1.14,6.073-5.569-.58-1.69M21.46,37.342l1.757,1.517L28.9,32.778l-2.857.349L21.46,37.342M26.185,9.191,33.4,2.841a1.149,1.149,0,0,0-1.512-.108,36.691,36.691,0,0,0-6.876,5.292l1.176,1.167M7.846,22.229,1.691,26.473c.081.636.158,1.233.262,2.048L7.846,24.15ZM2.9,31.083l6.095-4.51L8.1,25.3l-5.956,4.46a4.368,4.368,0,0,0,.223.613c.1.174.241.327.529.706M10.552,25.6c1.9-1.767,2-4.306.311-5.838a4.1,4.1,0,0,0-.311,5.838M33.23,22.736l.585,1.535,5.609-5.261h-2.1L33.23,22.736m4.475-5.7a3.656,3.656,0,0,0,4.7-3.022,4.455,4.455,0,0,0-4.7,3.022M19.418,9.693c1.893,1.785,4.088,2.095,5.359.828-.724-1.721-3.148-2.136-5.359-.828m4.319-2.177,6.684-5.368c-.729-.48-1.29-.149-1.833.258Q25.606,4.646,22.634,6.9c-.051.039-.031.17-.058.346l1.161.271M20.47,36.469a12.119,12.119,0,0,0,3.844-3.586l-1.32-.437-3.82,3.111,1.3.912M31.713,20.548l1.07,1.124,3.538-3.256-.565-1.535-4.043,3.666M45.765,10.262,44.7,9.314l-3.551,2.792,2.3.245,2.32-2.089m-1.488,4.492,2.916-2.44-.845-1.1L44.112,13.24l.165,1.514M41.83,23.823c-1.466-.617-1.623-.589-2.487.355.785,1.173.89,1.214,2.375.821.036-.371.076-.8.112-1.176m8.278,2.5.265.092.179-.578-.23-.078-.214.565" transform="translate(0 0)" fill="#3f1b00"/>
  </g>
</svg>
